<svg xmlns="http://www.w3.org/2000/svg" width="24.999" height="25" viewBox="0 0 24.999 25"><defs><style>.a{fill:#858a8f;}</style></defs><g transform="translate(-230.999 -2725)"><path class="a" d="M243.5,2750c-3.439,0-3.837-.013-5.151-.076a9.172,9.172,0,0,1-3.034-.582,6.406,6.406,0,0,1-3.659-3.655,9.2,9.2,0,0,1-.58-3.034c-.06-1.357-.075-1.8-.075-5.152,0-3.452.013-3.849.075-5.154a9.152,9.152,0,0,1,.58-3.035,6.424,6.424,0,0,1,3.657-3.656,9.19,9.19,0,0,1,3.035-.581c1.306-.057,1.7-.075,5.152-.075s3.846.013,5.153.075a9.19,9.19,0,0,1,3.035.581,6.418,6.418,0,0,1,3.656,3.657,9.234,9.234,0,0,1,.581,3.034c.06,1.356.075,1.8.075,5.154,0,3.433-.013,3.832-.076,5.153a9.178,9.178,0,0,1-.581,3.034,6.4,6.4,0,0,1-3.656,3.657,9.226,9.226,0,0,1-3.034.58C247.3,2749.985,246.849,2750,243.5,2750Zm-.047-22.781c-3.3,0-3.727.015-5.007.06l-.054,0a6.9,6.9,0,0,0-2.314.439,4.146,4.146,0,0,0-2.378,2.374,7.06,7.06,0,0,0-.437,2.326l0,.092c-.044,1.253-.061,1.722-.061,4.973,0,3.147.018,3.677.056,4.839l.007.207a7.074,7.074,0,0,0,.437,2.327,3.812,3.812,0,0,0,.941,1.442,3.9,3.9,0,0,0,1.437.933,7.058,7.058,0,0,0,2.329.439c1.293.059,1.683.076,5.061.076,3.321,0,3.72-.013,5.061-.073a6.957,6.957,0,0,0,2.328-.429,3.924,3.924,0,0,0,1.438-.933,4,4,0,0,0,.936-1.44,7.056,7.056,0,0,0,.439-2.32c.059-1.285.077-1.672.077-5.052,0-3.318-.013-3.716-.073-5.053a6.883,6.883,0,0,0-.43-2.32,4.117,4.117,0,0,0-2.372-2.372,6.865,6.865,0,0,0-2.32-.432c-1.318-.057-1.716-.074-5.053-.074l-.047-.031Zm.047,16.7a6.419,6.419,0,1,1,6.42-6.419A6.426,6.426,0,0,1,243.5,2743.919Zm0-10.587a4.167,4.167,0,1,0,0,8.334h.007a4.132,4.132,0,0,0,2.941-1.219,4.17,4.17,0,0,0-1.353-6.8A4.142,4.142,0,0,0,243.5,2733.332Zm6.672-1a1.5,1.5,0,1,1,1.5-1.5A1.5,1.5,0,0,1,250.172,2732.328Z"/></g></svg>