<svg xmlns="http://www.w3.org/2000/svg" width="25" height="25" viewBox="0 0 25 25"><defs><style>.a{fill:#858a8f;}</style></defs><g transform="translate(-335.999 -2725)"><path class="a" d="M359.171,2750H337.82a1.822,1.822,0,0,1-1.821-1.8v-21.4a1.829,1.829,0,0,1,1.822-1.8h21.35a1.837,1.837,0,0,1,1.829,1.8v21.4A1.837,1.837,0,0,1,359.171,2750Zm-7.5-12.664c1.93,0,1.93,1.829,1.93,3.164v5.8h3.7l0-6.545c0-2.951-.539-5.682-4.445-5.682l-.145,0a3.914,3.914,0,0,0-3.365,1.929H349.3v-1.625h-3.554V2746.3h3.7v-5.9C349.445,2738.883,349.709,2737.336,351.67,2737.336Zm-11.971-2.961V2746.3h3.716v-11.925Zm1.859-5.932a2.15,2.15,0,1,0,2.151,2.149A2.153,2.153,0,0,0,341.557,2728.443Z"/></g></svg>