<svg xmlns="http://www.w3.org/2000/svg" xmlns:xlink="http://www.w3.org/1999/xlink" width="34" height="34" viewBox="0 0 34 34"><defs><style>.a{clip-path:url(#a);}.b{fill:#858a8f;}</style><clipPath id="a"><rect width="34" height="34" transform="translate(748 7289)"/></clipPath></defs><g transform="translate(-748 -7289)"><g class="a"><path class="b" d="M33.935,3.295a14.167,14.167,0,0,1-4,1.1A7.024,7.024,0,0,0,33,.535a14.4,14.4,0,0,1-4.43,1.677A6.968,6.968,0,0,0,16.51,6.97a7.138,7.138,0,0,0,.18,1.594A19.741,19.741,0,0,1,2.323,1.3,6.831,6.831,0,0,0,1.38,4.806a6.971,6.971,0,0,0,3.1,5.8,6.948,6.948,0,0,1-3.156-.873v.086a6.974,6.974,0,0,0,5.589,6.839,7.034,7.034,0,0,1-3.134.12A6.994,6.994,0,0,0,10.3,21.622,13.98,13.98,0,0,1,1.656,24.6,14.8,14.8,0,0,1,0,24.51a19.827,19.827,0,0,0,10.706,3.129c12.826,0,19.832-10.619,19.832-19.814,0-.3,0-.6-.021-.892A14.076,14.076,0,0,0,34,3.323Z" transform="translate(748 7292.178)"/></g></g></svg>